<svg width="155" height="35" viewBox="0 0 155 35" fill="none" xmlns="http://www.w3.org/2000/svg">
<path fill-rule="evenodd" clip-rule="evenodd" d="M7.80587 25.7512L13.2154 24.9392L16.3878 31.5376C13.5511 31.375 11.4721 31.3058 10.1508 31.3302C8.82954 31.3545 7.01001 31.4934 4.69226 31.7467L7.80587 25.7512Z" fill="#6464FF"/>
<path fill-rule="evenodd" clip-rule="evenodd" d="M9.81549 16.979C9.81549 16.5699 9.38767 15.8368 8.7137 15.8368C8.58871 15.8368 8.16375 15.8368 7.4388 15.8368C6.88728 15.9247 6.61151 16.3365 6.61151 17.0722C6.61151 17.8079 6.88728 18.1955 7.4388 18.2351C7.4388 18.8757 7.4388 19.3625 7.4388 19.6956C7.30875 19.9284 0.585119 32.6839 0.404099 33.0289C-0.248517 34.2726 0.882581 34.9784 1.42312 34.9452C2.15617 34.9001 6.5842 34.5904 10.5676 34.5994C13.8828 34.6068 18.9238 34.879 19.9104 34.9452C20.6243 34.993 21.5184 34.1095 20.9645 33.1278C20.719 32.6926 18.439 28.2152 14.1244 19.6956V18.2081C14.676 18.1177 14.9517 17.739 14.9517 17.0722C14.9517 16.3328 14.676 15.921 14.1244 15.8368H12.9033C12.6194 15.8139 12.3537 15.9208 12.1061 16.1575C11.8586 16.3942 11.7377 16.657 11.7435 16.9459V19.6956C11.7355 19.9335 11.7446 20.1151 11.7709 20.2404C11.7973 20.3656 11.8604 20.5278 11.9603 20.7268L17.9436 32.4509C14.6746 32.304 12.2507 32.2305 10.672 32.2305C8.61561 32.2305 5.18892 32.3852 3.42529 32.4356C3.6919 31.9221 5.77199 27.9662 9.66556 20.5678C9.77682 20.351 9.8268 20.1054 9.81549 19.831C9.81549 19.2519 9.81549 17.3881 9.81549 16.979Z" fill="#35374E"/>
<path d="M14.6146 8.5432L15.4114 8.203L14.4548 10.5725C14.1086 11.4302 13.1355 11.8456 12.2815 11.5003L9.92232 10.5464L10.7192 10.2062L12.5114 10.9308C13.0523 11.1495 13.6685 10.8865 13.8879 10.3432L14.6146 8.5432Z" fill="#6464FF"/>
<path d="M12.6815 14.8586L11.8876 15.1975L12.8472 12.8243C13.1925 11.9705 14.1619 11.5567 15.0125 11.9L17.3769 12.8545L16.5829 13.1933L14.7833 12.4669C14.2445 12.2494 13.6306 12.5115 13.4119 13.0522L12.6815 14.8586Z" fill="#6464FF"/>
<path d="M10.2616 11.5943L10.8571 11.8243L9.1562 12.557C8.5405 12.8223 7.81341 12.5414 7.53219 11.9296L6.75534 10.2397L7.35081 10.4698L7.94097 11.7536C8.11907 12.141 8.57955 12.3189 8.96951 12.1509L10.2616 11.5943Z" fill="#6464FF"/>
<path d="M6.05422 13.8599L5.46092 13.6309L7.16581 12.8976C7.77917 12.6337 8.50362 12.9134 8.78393 13.5223L9.56304 15.2146L8.96972 14.9855L8.3767 13.6974C8.19917 13.3118 7.74037 13.1347 7.3519 13.3018L6.05422 13.8599Z" fill="#6464FF"/>
<path d="M10.9801 5.41947L11.4906 5.30077L10.6805 6.64721C10.3873 7.1346 9.76398 7.27954 9.28828 6.97094L7.97415 6.11841L8.48465 5.99971L9.48296 6.64735C9.78424 6.8428 10.179 6.75101 10.3647 6.44233L10.9801 5.41947Z" fill="#6464FF"/>
<path d="M9.18967 9.07759L8.68106 9.1958L9.4933 7.84744C9.78551 7.36234 10.4066 7.218 10.8804 7.52503L12.1976 8.37848L11.689 8.49669L10.6864 7.84709C10.3863 7.65263 9.99297 7.74405 9.80791 8.05128L9.18967 9.07759Z" fill="#6464FF"/>
<path d="M14.0744 0.876896L14.4573 1.02478L13.3595 1.50709C12.9621 1.68169 12.4947 1.50111 12.3155 1.10377L11.8204 0.00610352L12.2032 0.153989L12.5793 0.987858C12.6928 1.23951 12.9888 1.35387 13.2405 1.2433L14.0744 0.876896Z" fill="#6464FF"/>
<path d="M11.3577 2.36501L10.9763 2.21776L12.0766 1.73505C12.4724 1.56139 12.9382 1.74119 13.1168 2.13665L13.6133 3.23587L13.2319 3.08861L12.854 2.25194C12.7408 2.00148 12.4459 1.88761 12.1952 1.9976L11.3577 2.36501Z" fill="#6464FF"/>
<path fill-rule="evenodd" clip-rule="evenodd" d="M38.3366 25.3253L43.2482 34.283C43.3854 34.5281 43.2208 34.7187 42.9464 34.7187H37.2117C36.9647 34.7187 36.6903 34.5008 36.5806 34.283L34.3306 29.7361L32.0806 34.283C31.9708 34.5008 31.6964 34.7187 31.4495 34.7187H25.7148C25.4404 34.7187 25.2758 34.5281 25.4129 34.283L30.3245 25.3253L25.4129 16.3675C25.2758 16.1225 25.4404 15.9319 25.7148 15.9319H31.4221C31.669 15.9319 31.9434 16.1497 32.0531 16.3675L34.3306 21.1867L36.608 16.3675C36.7178 16.1497 36.9921 15.9319 37.2391 15.9319H42.9464C43.2208 15.9319 43.3854 16.1225 43.2482 16.3675L38.3366 25.3253ZM56.3344 27.2856L60.6735 34.283C60.81 34.5281 60.6189 34.7187 60.3733 34.7187H54.5333C54.2604 34.7187 54.0147 34.5281 53.9056 34.283L51.0674 28.3475H50.7399V34.3375C50.7399 34.5281 50.5489 34.7187 50.3033 34.7187H45.5003C45.2819 34.7187 45.0909 34.5281 45.0909 34.3375V16.3403C45.0909 16.1225 45.2819 15.9319 45.5003 15.9319H52.7048C56.9075 15.9319 59.6911 18.3823 59.6911 22.0852C59.6911 24.2362 58.3811 26.4144 56.3344 27.2856ZM50.7273 23.6525H52.291C53.1921 23.6525 53.8017 23.0916 53.8017 22.237C53.8017 21.3824 53.1921 20.8216 52.291 20.8216H50.7273V23.6525ZM62.8981 15.9319H69.4007C74.2226 15.9319 77.1157 18.5185 77.1157 22.412C77.1157 26.3054 74.2226 28.892 69.4007 28.892H68.2711V34.3375C68.2711 34.5281 68.0782 34.7187 67.8302 34.7187H62.8981C62.7053 34.7187 62.5124 34.5281 62.5124 34.3375V16.3403C62.5124 16.1225 62.7053 15.9319 62.8981 15.9319ZM68.1488 23.9098H69.589C70.5584 23.9098 71.2231 23.2817 71.2231 22.3657C71.2231 21.4497 70.5584 20.8216 69.589 20.8216H68.1488V23.9098ZM84.7821 29.8178H89.8291C90.019 29.8178 90.1818 29.9811 90.1818 30.1989L89.8019 34.3375C89.7748 34.5281 89.5849 34.7187 89.3678 34.7187H79.5723C79.3552 34.7187 79.1653 34.5281 79.1653 34.3375V16.3403C79.1653 16.1225 79.3552 15.9319 79.5723 15.9319H84.3751C84.5922 15.9319 84.7821 16.1225 84.7821 16.3403V29.8178Z" fill="#35374E"/>
<path fill-rule="evenodd" clip-rule="evenodd" d="M100.722 31.7682H108.196C108.479 31.7682 108.709 31.9986 108.709 32.2829C108.709 32.3339 108.701 32.3847 108.686 32.4335L108.101 34.3545C108.035 34.5709 107.836 34.7186 107.611 34.7186H97.1337C96.8507 34.7186 96.6213 34.4882 96.6213 34.2039V16.3091C96.6213 16.0248 96.8507 15.7943 97.1337 15.7943H99.6975C99.9805 15.7943 100.21 16.0248 100.21 16.3091V31.2535C100.21 31.5378 100.439 31.7682 100.722 31.7682ZM119.841 30.7674H115.035C114.805 30.7674 114.604 30.9212 114.542 31.1436L113.652 34.3424C113.59 34.5648 113.389 34.7186 113.159 34.7186H110.469C110.186 34.7186 109.957 34.4882 109.957 34.2039C109.957 34.1501 109.965 34.0967 109.982 34.0455L115.746 16.1506C115.814 15.9382 116.011 15.7943 116.233 15.7943H118.744C118.967 15.7943 119.165 15.9396 119.232 16.1533L124.888 34.0482C124.973 34.3191 124.824 34.6085 124.554 34.6945C124.504 34.7105 124.452 34.7186 124.399 34.7186H121.707C121.477 34.7186 121.274 34.5641 121.213 34.3409L120.335 31.1451C120.273 30.922 120.071 30.7674 119.841 30.7674ZM115.023 26.7968H118.966L117.02 20.1953L115.023 26.7968ZM126.414 34.2039V16.3091C126.414 16.0248 126.643 15.7943 126.926 15.7943H132.745C133.772 15.7943 134.707 15.8983 135.548 16.1063C136.39 16.3142 137.108 16.6305 137.704 17.0551C138.3 17.4797 138.759 18.0169 139.083 18.6668C139.407 19.3167 139.568 20.0835 139.568 20.9673C139.56 21.8512 139.325 22.644 138.863 23.3459C138.401 24.0477 137.721 24.5806 136.824 24.9445C137.367 25.0832 137.838 25.2911 138.235 25.5684C138.632 25.8457 138.962 26.1728 139.225 26.5497C139.489 26.9267 139.683 27.3382 139.808 27.7845C139.933 28.2307 139.996 28.6921 139.996 29.1687C139.996 30.0785 139.84 30.88 139.53 31.5732C139.219 32.2664 138.774 32.847 138.196 33.3149C137.618 33.7828 136.914 34.1337 136.086 34.3677C135.257 34.6016 134.325 34.7186 133.289 34.7186H126.926C126.643 34.7186 126.414 34.4882 126.414 34.2039ZM129.919 26.4313V30.6831C129.919 30.9674 130.148 31.1978 130.431 31.1978H133.074C134.041 31.1893 134.78 30.9497 135.289 30.4788C135.798 30.008 136.052 29.3908 136.052 28.6272C136.061 27.7788 135.834 27.1171 135.371 26.642C134.908 26.1669 134.193 25.9251 133.225 25.9166H130.431C130.148 25.9166 129.919 26.1471 129.919 26.4313ZM130.431 23.276H132.749C133.805 23.2676 134.617 23.0606 135.186 22.6551C135.755 22.2495 136.044 21.6539 136.053 20.8682C136.053 20.0064 135.768 19.3875 135.2 19.0116C134.631 18.6356 133.809 18.4434 132.735 18.4349H130.431C130.148 18.4349 129.919 18.6654 129.919 18.9496V22.7613C129.919 23.0456 130.148 23.276 130.431 23.276ZM151.266 29.5505C151.266 29.2137 151.208 28.8985 151.09 28.6049C150.972 28.3113 150.771 28.0372 150.488 27.7824C150.204 27.5277 149.833 27.2945 149.375 27.083C148.917 26.8714 148.348 26.675 147.667 26.4936C146.838 26.2691 146.046 25.9885 145.292 25.6517C144.537 25.3149 143.872 24.9091 143.296 24.4341C142.72 23.9592 142.26 23.4065 141.915 22.7762C141.57 22.1458 141.398 21.4205 141.398 20.6001C141.398 19.8057 141.568 19.0846 141.908 18.437C142.249 17.7894 142.72 17.2367 143.322 16.7791C143.924 16.3214 144.635 15.9695 145.455 15.7234C146.275 15.4773 147.165 15.3542 148.125 15.3542C149.12 15.3542 150.03 15.4967 150.854 15.7817C151.679 16.0667 152.388 16.466 152.981 16.9798C153.574 17.4936 154.037 18.1045 154.368 18.8126C154.547 19.1949 154.69 19.7773 154.797 20.5597L154.797 20.5597C154.835 20.8413 154.639 21.1009 154.358 21.1394C154.335 21.1425 154.312 21.1441 154.289 21.1441L151.727 21.1441C151.475 21.1441 151.26 20.9596 151.221 20.7092C151.171 20.3891 151.114 20.1455 151.051 19.9784C150.915 19.6243 150.715 19.32 150.448 19.0652C150.182 18.8105 149.851 18.6119 149.454 18.4694C149.057 18.3269 148.592 18.2557 148.06 18.2557C147.571 18.2557 147.137 18.314 146.758 18.4305C146.378 18.5471 146.057 18.7112 145.796 18.9227C145.534 19.1343 145.335 19.3847 145.2 19.674C145.065 19.9633 144.997 20.2763 144.997 20.6131C144.997 20.9671 145.087 21.2866 145.266 21.5716C145.444 21.8565 145.704 22.1134 146.044 22.3423C146.385 22.5711 146.797 22.7805 147.281 22.9705C147.765 23.1604 148.313 23.3375 148.924 23.5015C149.796 23.752 150.599 24.0585 151.332 24.4212C152.065 24.7839 152.695 25.2135 153.223 25.71C153.751 26.2065 154.161 26.7721 154.453 27.4068C154.746 28.0415 154.892 28.7474 154.892 29.5246C154.892 30.3535 154.724 31.0897 154.388 31.733C154.052 32.3763 153.587 32.9203 152.994 33.3651C152.401 33.8098 151.694 34.1465 150.874 34.3754C150.054 34.6042 149.159 34.7186 148.191 34.7186C147.589 34.7186 146.989 34.6647 146.391 34.5567C145.793 34.4488 145.222 34.2825 144.677 34.058C144.131 33.8335 143.623 33.5529 143.152 33.2161C142.681 32.8793 142.273 32.4864 141.928 32.0374C141.583 31.5884 141.313 31.0789 141.117 30.509C141.016 30.2165 140.934 29.7758 140.872 29.1867C140.843 28.904 141.047 28.6506 141.328 28.6207C141.346 28.6188 141.364 28.6179 141.382 28.6179L143.983 28.6179C144.238 28.6179 144.454 28.8054 144.49 29.0583C144.559 29.5304 144.641 29.8715 144.735 30.0815C144.919 30.4874 145.174 30.8198 145.501 31.0789C145.828 31.338 146.221 31.5279 146.679 31.6488C147.137 31.7697 147.641 31.8302 148.191 31.8302C148.679 31.8302 149.113 31.774 149.493 31.6618C149.873 31.5495 150.193 31.3941 150.455 31.1955C150.717 30.9969 150.917 30.7572 151.057 30.4766C151.197 30.1959 151.266 29.8872 151.266 29.5505Z" fill="#797B91"/>
</svg>
